<svg width="38" height="38" viewBox="0 0 38 38" fill="none" xmlns="http://www.w3.org/2000/svg">
<path d="M7.3335 24H5.66683C4.78277 24 3.93493 23.6488 3.30981 23.0237C2.68469 22.3986 2.3335 21.5507 2.3335 20.6667V5.66668C2.3335 4.78262 2.68469 3.93478 3.30981 3.30965C3.93493 2.68453 4.78277 2.33334 5.66683 2.33334H20.6668C21.5509 2.33334 22.3987 2.68453 23.0239 3.30965C23.649 3.93478 24.0002 4.78262 24.0002 5.66668V7.33334M17.3335 14H32.3335C34.1744 14 35.6668 15.4924 35.6668 17.3333V32.3333C35.6668 34.1743 34.1744 35.6667 32.3335 35.6667H17.3335C15.4925 35.6667 14.0002 34.1743 14.0002 32.3333V17.3333C14.0002 15.4924 15.4925 14 17.3335 14Z" stroke="#F3F3F3" stroke-width="4" stroke-linecap="round" stroke-linejoin="round"/>
</svg>
